<svg xmlns="http://www.w3.org/2000/svg" viewBox="0 0 64 64" fill="none">
  <path d="M0 0h64v64H0z" fill="none"/>
  <path d="M55.095 23.878a2.739 2.739 0 0 0-2.675-3.315H11.58a2.735 2.735 0 0 0-2.675 3.315L15.232 53.1a3.678 3.678 0 0 0 3.595 2.9h26.346a3.678 3.678 0 0 0 3.595-2.9l6.327-29.222z" stroke="#444f58" stroke-width="2" stroke-linecap="round" stroke-linejoin="round"/>
  <path d="M11.338 20.563a5.956 5.956 0 0 1-.012-.38c0-2.942 2.243-5.33 5.007-5.33.936 0 1.813.274 2.563.752a5.885 5.885 0 0 1-.009-.326c0-2.942 2.243-5.33 5.007-5.33 1.142 0 2.195.408 3.038 1.094C27.736 9.244 29.46 8 31.455 8c1.994 0 3.718 1.244 4.523 3.043a4.794 4.794 0 0 1 3.038-1.094c2.763 0 5.007 2.388 5.007 5.33 0 .109-.003.218-.01.326a4.752 4.752 0 0 1 2.564-.752c2.763 0 5.007 2.388 5.007 5.33 0 .128-.004.255-.013.38" stroke="#444f58" stroke-width="2" stroke-linecap="round" stroke-linejoin="round"/>
  <path d="M25.632 12.953s1.068-2.833 4.087-1.718M38.096 17.044s3.529-.464 4.133 3.111M23.915 52.28h-2.539a2.66 2.66 0 0 1-2.595-2.079l-.999-4.472" stroke="#444f58" stroke-width="2" stroke-linecap="round" stroke-linejoin="round"/>
</svg>